<svg width="50" height="50" viewBox="0 0 50 50" fill="none" xmlns="http://www.w3.org/2000/svg">
<rect width="50" height="50" rx="16" fill="#D9F38E"/>
<path d="M32.5619 20C32.7906 18.6952 31.7866 17.5 30.4619 17.5H19.5381C18.2134 17.5 17.2094 18.6952 17.4381 20" stroke="#344854" stroke-width="1.5"/>
<path d="M30.5 17.5C30.5284 17.2409 30.5426 17.1113 30.5428 17.0043C30.545 15.9807 29.774 15.1206 28.7562 15.0114C28.6498 15 28.5195 15 28.2588 15H21.7411C21.4804 15 21.3501 15 21.2437 15.0114C20.2259 15.1206 19.4549 15.9807 19.4571 17.0043C19.4573 17.1114 19.4715 17.2409 19.4999 17.5" stroke="#344854" stroke-width="1.5"/>
<path d="M28 31H22" stroke="#344854" stroke-width="1.5" stroke-linecap="round"/>
<path d="M15.3835 26.793C14.9375 23.6294 14.7145 22.0477 15.6623 21.0238C16.6102 20 18.2976 20 21.6724 20H28.3276C31.7024 20 33.3898 20 34.3377 21.0238C35.2855 22.0477 35.0625 23.6294 34.6165 26.793L34.1935 29.793C33.8437 32.2739 33.6689 33.5143 32.7717 34.2572C31.8745 35 30.5512 35 27.9046 35H22.0954C19.4488 35 18.1255 35 17.2283 34.2572C16.3311 33.5143 16.1563 32.2739 15.8065 29.793L15.3835 26.793Z" stroke="#344854" stroke-width="1.5"/>
</svg>
