<svg width="490" height="400" viewBox="0 0 490 400" fill="none" xmlns="http://www.w3.org/2000/svg">
<path fill-rule="evenodd" clip-rule="evenodd" d="M275.532 152.605C282.816 149.246 289.445 144.579 295.422 138.607C309.428 124.609 316.409 107.789 316.364 88.1466C316.316 68.5008 309.335 51.7255 295.422 37.8207L245.273 -12.297C245.121 -12.4492 244.874 -12.4492 244.722 -12.297L194.574 37.8207C180.661 51.7255 173.682 68.4989 173.637 88.141C173.588 107.787 180.567 124.609 194.574 138.607C200.457 144.486 207.062 149.128 214.391 152.532C221.613 155.889 229.038 158 236.666 158.866C236.864 158.888 237.014 159.055 237.014 159.254V180.631C237.014 180.847 237.189 181.021 237.404 181.021H252.592C252.807 181.021 252.982 180.847 252.982 180.631L252.982 159.254C252.982 159.055 253.132 158.888 253.329 158.866C260.957 158.001 268.358 155.914 275.532 152.605ZM262.726 125.904C263.152 125.799 263.526 125.614 263.846 125.351C263.476 125.54 263.102 125.725 262.726 125.904Z" fill="#D9F38E"/>
<path fill-rule="evenodd" clip-rule="evenodd" d="M214.469 247.399C207.185 250.758 200.556 255.424 194.579 261.397C180.573 275.395 173.592 292.215 173.637 311.857C173.685 331.503 180.666 348.278 194.579 362.183L244.728 412.301C244.88 412.453 245.127 412.453 245.279 412.301L295.427 362.183C309.34 348.278 316.319 331.505 316.364 311.863C316.413 292.217 309.434 275.395 295.427 261.397C289.544 255.517 282.939 250.876 275.61 247.471C268.388 244.114 260.963 242.003 253.335 241.138C253.137 241.116 252.987 240.949 252.987 240.749V219.372C252.987 219.157 252.812 218.982 252.597 218.982L237.409 218.982C237.194 218.982 237.019 219.157 237.019 219.372L237.019 240.749C237.019 240.949 236.869 241.116 236.672 241.138C229.044 242.002 221.643 244.089 214.469 247.399ZM227.263 274.103C226.846 274.208 226.479 274.388 226.164 274.645C226.527 274.459 226.893 274.279 227.263 274.103Z" fill="#D9F38E"/>
<path fill-rule="evenodd" clip-rule="evenodd" d="M197.605 169.469C194.245 162.185 189.579 155.555 183.607 149.579C169.609 135.573 152.789 128.592 133.147 128.637C113.501 128.685 96.7254 135.666 82.8207 149.579L32.703 199.728C32.5508 199.88 32.5508 200.127 32.703 200.279L82.8207 250.427C96.7254 264.34 113.499 271.319 133.141 271.364C152.787 271.413 169.609 264.434 183.607 250.427C189.486 244.544 194.128 237.939 197.532 230.61C200.889 223.388 203 215.963 203.866 208.335C203.888 208.137 204.055 207.987 204.254 207.987H225.631C225.847 207.987 226.021 207.812 226.021 207.597L226.021 192.409C226.021 192.194 225.847 192.019 225.631 192.019L204.254 192.019C204.055 192.019 203.888 191.869 203.866 191.671C203.001 184.044 200.914 176.643 197.605 169.469ZM170.904 182.278C170.799 181.849 170.614 181.475 170.349 181.153C170.54 181.525 170.725 181.9 170.904 182.278Z" fill="#D9F38E"/>
<path fill-rule="evenodd" clip-rule="evenodd" d="M292.397 230.896C295.757 238.179 300.423 244.809 306.395 250.785C320.394 264.792 337.214 271.772 356.856 271.728C376.502 271.679 393.277 264.698 407.182 250.785L457.299 200.637C457.452 200.485 457.452 200.238 457.299 200.085L407.182 149.937C393.277 136.024 376.504 129.045 356.861 129C337.216 128.952 320.394 135.931 306.395 149.937C300.516 155.82 295.874 162.426 292.47 169.754C289.113 176.976 287.002 184.401 286.137 192.03C286.114 192.227 285.947 192.377 285.748 192.377H264.371C264.156 192.377 263.981 192.552 263.981 192.767L263.981 207.955C263.981 208.17 264.156 208.345 264.371 208.345L285.748 208.345C285.947 208.345 286.114 208.495 286.137 208.693C287.001 216.32 289.088 223.721 292.397 230.896ZM319.101 218.097C319.205 218.517 319.388 218.887 319.647 219.204C319.46 218.838 319.277 218.469 319.101 218.097Z" fill="#D9F38E"/>
<circle cx="245" cy="200.001" r="44.0331" fill="#D9F38E"/>
<circle cx="444.206" cy="200" r="45.7944" fill="#344854"/>
<circle cx="45.7944" cy="200" r="45.7944" fill="#344854"/>
<circle cx="245" cy="0.794388" r="45.7944" fill="#344854"/>
<circle cx="245" cy="399.206" r="45.7944" fill="#344854"/>
<circle cx="444.206" cy="200" r="18.3178" fill="#D9F38E"/>
<circle cx="45.7945" cy="200" r="18.3178" fill="#D9F38E"/>
<circle cx="245" cy="0.794561" r="18.3178" fill="#D9F38E"/>
<circle cx="245" cy="399.206" r="18.3178" fill="#D9F38E"/>
</svg>
