<svg width="204" height="94" viewBox="0 0 204 94" fill="none" xmlns="http://www.w3.org/2000/svg">
<g filter="url(#filter0_d_115_523)">
<rect x="10" y="6" width="184" height="74" rx="16" fill="#FAFBFE" shape-rendering="crispEdges"/>
<rect x="26" y="23" width="40" height="40" rx="8" fill="#D9F38E"/>
<path d="M43.5 43C43.5 44.1506 42.5673 45.0833 41.4167 45.0833C40.2661 45.0833 39.3334 44.1506 39.3334 43C39.3334 41.8494 40.2661 40.9166 41.4167 40.9166C42.5673 40.9166 43.5 41.8494 43.5 43Z" stroke="#344854" stroke-width="1.25"/>
<path d="M47.6667 38.4166L43.5 41.3333" stroke="#344854" stroke-width="1.25" stroke-linecap="round"/>
<path d="M47.6667 47.5834L43.5 44.6667" stroke="#344854" stroke-width="1.25" stroke-linecap="round"/>
<path d="M51.8333 48.4167C51.8333 49.5673 50.9006 50.5 49.75 50.5C48.5994 50.5 47.6666 49.5673 47.6666 48.4167C47.6666 47.2661 48.5994 46.3334 49.75 46.3334C50.9006 46.3334 51.8333 47.2661 51.8333 48.4167Z" stroke="#344854" stroke-width="1.25"/>
<path d="M51.8333 37.5833C51.8333 38.7339 50.9006 39.6667 49.75 39.6667C48.5994 39.6667 47.6666 38.7339 47.6666 37.5833C47.6666 36.4327 48.5994 35.5 49.75 35.5C50.9006 35.5 51.8333 36.4327 51.8333 37.5833Z" stroke="#344854" stroke-width="1.25"/>
<path d="M86.864 40.112C86.1173 40.112 85.4453 39.984 84.848 39.728C84.2507 39.4613 83.7813 39.088 83.44 38.608C83.0987 38.128 82.928 37.568 82.928 36.928H84.88C84.9227 37.408 85.1093 37.8027 85.44 38.112C85.7813 38.4213 86.256 38.576 86.864 38.576C87.4933 38.576 87.984 38.4267 88.336 38.128C88.688 37.8187 88.864 37.424 88.864 36.944C88.864 36.5707 88.752 36.2667 88.528 36.032C88.3147 35.7973 88.0427 35.616 87.712 35.488C87.392 35.36 86.944 35.2213 86.368 35.072C85.6427 34.88 85.0507 34.688 84.592 34.496C84.144 34.2933 83.76 33.984 83.44 33.568C83.12 33.152 82.96 32.5973 82.96 31.904C82.96 31.264 83.12 30.704 83.44 30.224C83.76 29.744 84.208 29.376 84.784 29.12C85.36 28.864 86.0267 28.736 86.784 28.736C87.8613 28.736 88.7413 29.008 89.424 29.552C90.1173 30.0853 90.5013 30.8213 90.576 31.76H88.56C88.528 31.3547 88.336 31.008 87.984 30.72C87.632 30.432 87.168 30.288 86.592 30.288C86.0693 30.288 85.6427 30.4213 85.312 30.688C84.9813 30.9547 84.816 31.3387 84.816 31.84C84.816 32.1813 84.9173 32.464 85.12 32.688C85.3333 32.9013 85.6 33.072 85.92 33.2C86.24 33.328 86.6773 33.4667 87.232 33.616C87.968 33.8187 88.5653 34.0213 89.024 34.224C89.4933 34.4267 89.888 34.7413 90.208 35.168C90.5387 35.584 90.704 36.144 90.704 36.848C90.704 37.4133 90.5493 37.9467 90.24 38.448C89.9413 38.9493 89.4987 39.3547 88.912 39.664C88.336 39.9627 87.6533 40.112 86.864 40.112ZM97.4163 31.04C98.0883 31.04 98.6856 31.184 99.2083 31.472C99.7416 31.76 100.158 32.1867 100.456 32.752C100.766 33.3173 100.92 34 100.92 34.8V40H99.1123V35.072C99.1123 34.2827 98.9149 33.68 98.5203 33.264C98.1256 32.8373 97.5869 32.624 96.9043 32.624C96.2216 32.624 95.6776 32.8373 95.2723 33.264C94.8776 33.68 94.6803 34.2827 94.6803 35.072V40H92.8563V28.16H94.6803V32.208C94.9896 31.8347 95.3789 31.5467 95.8483 31.344C96.3283 31.1413 96.8509 31.04 97.4163 31.04ZM102.639 35.552C102.639 34.6667 102.82 33.8827 103.183 33.2C103.556 32.5173 104.058 31.9893 104.687 31.616C105.327 31.232 106.031 31.04 106.799 31.04C107.492 31.04 108.095 31.1787 108.607 31.456C109.13 31.7227 109.546 32.0587 109.855 32.464V31.184H111.695V40H109.855V38.688C109.546 39.104 109.124 39.4507 108.591 39.728C108.058 40.0053 107.45 40.144 106.767 40.144C106.01 40.144 105.316 39.952 104.687 39.568C104.058 39.1733 103.556 38.6293 103.183 37.936C102.82 37.232 102.639 36.4373 102.639 35.552ZM109.855 35.584C109.855 34.976 109.727 34.448 109.471 34C109.226 33.552 108.9 33.2107 108.495 32.976C108.09 32.7413 107.652 32.624 107.183 32.624C106.714 32.624 106.276 32.7413 105.871 32.976C105.466 33.2 105.135 33.536 104.879 33.984C104.634 34.4213 104.511 34.944 104.511 35.552C104.511 36.16 104.634 36.6933 104.879 37.152C105.135 37.6107 105.466 37.9627 105.871 38.208C106.287 38.4427 106.724 38.56 107.183 38.56C107.652 38.56 108.09 38.4427 108.495 38.208C108.9 37.9733 109.226 37.632 109.471 37.184C109.727 36.7253 109.855 36.192 109.855 35.584ZM115.915 32.464C116.181 32.016 116.533 31.6693 116.971 31.424C117.419 31.168 117.947 31.04 118.555 31.04V32.928H118.091C117.376 32.928 116.832 33.1093 116.459 33.472C116.096 33.8347 115.915 34.464 115.915 35.36V40H114.091V31.184H115.915V32.464ZM128.311 35.376C128.311 35.7067 128.29 36.0053 128.247 36.272H121.511C121.565 36.976 121.826 37.5413 122.295 37.968C122.765 38.3947 123.341 38.608 124.023 38.608C125.005 38.608 125.698 38.1973 126.103 37.376H128.071C127.805 38.1867 127.319 38.8533 126.615 39.376C125.922 39.888 125.058 40.144 124.023 40.144C123.181 40.144 122.423 39.9573 121.751 39.584C121.09 39.2 120.567 38.6667 120.183 37.984C119.81 37.2907 119.623 36.4907 119.623 35.584C119.623 34.6773 119.805 33.8827 120.167 33.2C120.541 32.5067 121.058 31.9733 121.719 31.6C122.391 31.2267 123.159 31.04 124.023 31.04C124.855 31.04 125.597 31.2213 126.247 31.584C126.898 31.9467 127.405 32.4587 127.767 33.12C128.13 33.7707 128.311 34.5227 128.311 35.376ZM126.407 34.8C126.397 34.128 126.157 33.5893 125.687 33.184C125.218 32.7787 124.637 32.576 123.943 32.576C123.314 32.576 122.775 32.7787 122.327 33.184C121.879 33.5787 121.613 34.1173 121.527 34.8H126.407Z" fill="#344854"/>
<path d="M88.78 50.636L86.056 55.844V59H84.964V55.844L82.228 50.636H83.44L85.504 54.872L87.568 50.636H88.78ZM92.7998 59.108C92.1838 59.108 91.6238 58.968 91.1198 58.688C90.6238 58.408 90.2318 58.012 89.9438 57.5C89.6638 56.98 89.5238 56.38 89.5238 55.7C89.5238 55.028 89.6678 54.436 89.9558 53.924C90.2518 53.404 90.6518 53.008 91.1558 52.736C91.6598 52.456 92.2238 52.316 92.8478 52.316C93.4718 52.316 94.0358 52.456 94.5398 52.736C95.0438 53.008 95.4398 53.4 95.7278 53.912C96.0238 54.424 96.1718 55.02 96.1718 55.7C96.1718 56.38 96.0198 56.98 95.7158 57.5C95.4198 58.012 95.0158 58.408 94.5038 58.688C93.9918 58.968 93.4238 59.108 92.7998 59.108ZM92.7998 58.148C93.1918 58.148 93.5598 58.056 93.9038 57.872C94.2478 57.688 94.5238 57.412 94.7318 57.044C94.9478 56.676 95.0558 56.228 95.0558 55.7C95.0558 55.172 94.9518 54.724 94.7438 54.356C94.5358 53.988 94.2638 53.716 93.9278 53.54C93.5918 53.356 93.2278 53.264 92.8358 53.264C92.4358 53.264 92.0678 53.356 91.7318 53.54C91.4038 53.716 91.1398 53.988 90.9398 54.356C90.7398 54.724 90.6398 55.172 90.6398 55.7C90.6398 56.236 90.7358 56.688 90.9278 57.056C91.1278 57.424 91.3918 57.7 91.7198 57.884C92.0478 58.06 92.4078 58.148 92.7998 58.148ZM103.44 52.424V59H102.348V58.028C102.14 58.364 101.848 58.628 101.472 58.82C101.104 59.004 100.696 59.096 100.248 59.096C99.7356 59.096 99.2756 58.992 98.8676 58.784C98.4596 58.568 98.1356 58.248 97.8956 57.824C97.6636 57.4 97.5476 56.884 97.5476 56.276V52.424H98.6276V56.132C98.6276 56.78 98.7916 57.28 99.1196 57.632C99.4476 57.976 99.8956 58.148 100.464 58.148C101.048 58.148 101.508 57.968 101.844 57.608C102.18 57.248 102.348 56.724 102.348 56.036V52.424H103.44ZM106.375 53.492C106.567 53.116 106.839 52.824 107.191 52.616C107.551 52.408 107.987 52.304 108.499 52.304V53.432H108.211C106.987 53.432 106.375 54.096 106.375 55.424V59H105.283V52.424H106.375V53.492ZM116.631 59L114.051 56.096V59H112.959V50.12H114.051V55.34L116.583 52.424H118.107L115.011 55.7L118.119 59H116.631ZM122.339 52.304C123.139 52.304 123.787 52.548 124.283 53.036C124.779 53.516 125.027 54.212 125.027 55.124V59H123.947V55.28C123.947 54.624 123.783 54.124 123.455 53.78C123.127 53.428 122.679 53.252 122.111 53.252C121.535 53.252 121.075 53.432 120.731 53.792C120.395 54.152 120.227 54.676 120.227 55.364V59H119.135V52.424H120.227V53.36C120.443 53.024 120.735 52.764 121.103 52.58C121.479 52.396 121.891 52.304 122.339 52.304ZM129.679 59.108C129.063 59.108 128.503 58.968 127.999 58.688C127.503 58.408 127.111 58.012 126.823 57.5C126.543 56.98 126.403 56.38 126.403 55.7C126.403 55.028 126.547 54.436 126.835 53.924C127.131 53.404 127.531 53.008 128.035 52.736C128.539 52.456 129.103 52.316 129.727 52.316C130.351 52.316 130.915 52.456 131.419 52.736C131.923 53.008 132.319 53.4 132.607 53.912C132.903 54.424 133.051 55.02 133.051 55.7C133.051 56.38 132.899 56.98 132.595 57.5C132.299 58.012 131.895 58.408 131.383 58.688C130.871 58.968 130.303 59.108 129.679 59.108ZM129.679 58.148C130.071 58.148 130.439 58.056 130.783 57.872C131.127 57.688 131.403 57.412 131.611 57.044C131.827 56.676 131.935 56.228 131.935 55.7C131.935 55.172 131.831 54.724 131.623 54.356C131.415 53.988 131.143 53.716 130.807 53.54C130.471 53.356 130.107 53.264 129.715 53.264C129.315 53.264 128.947 53.356 128.611 53.54C128.283 53.716 128.019 53.988 127.819 54.356C127.619 54.724 127.519 55.172 127.519 55.7C127.519 56.236 127.615 56.688 127.807 57.056C128.007 57.424 128.271 57.7 128.599 57.884C128.927 58.06 129.287 58.148 129.679 58.148ZM143.247 52.424L141.195 59H140.067L138.483 53.78L136.899 59H135.771L133.707 52.424H134.823L136.335 57.944L137.967 52.424H139.083L140.679 57.956L142.167 52.424H143.247ZM145.422 50.12V59H144.33V50.12H145.422ZM153.283 55.46C153.283 55.668 153.271 55.888 153.247 56.12H147.991C148.031 56.768 148.251 57.276 148.651 57.644C149.059 58.004 149.551 58.184 150.127 58.184C150.599 58.184 150.991 58.076 151.303 57.86C151.623 57.636 151.847 57.34 151.975 56.972H153.151C152.975 57.604 152.623 58.12 152.095 58.52C151.567 58.912 150.911 59.108 150.127 59.108C149.503 59.108 148.943 58.968 148.447 58.688C147.959 58.408 147.575 58.012 147.295 57.5C147.015 56.98 146.875 56.38 146.875 55.7C146.875 55.02 147.011 54.424 147.283 53.912C147.555 53.4 147.935 53.008 148.423 52.736C148.919 52.456 149.487 52.316 150.127 52.316C150.751 52.316 151.303 52.452 151.783 52.724C152.263 52.996 152.631 53.372 152.887 53.852C153.151 54.324 153.283 54.86 153.283 55.46ZM152.155 55.232C152.155 54.816 152.063 54.46 151.879 54.164C151.695 53.86 151.443 53.632 151.123 53.48C150.811 53.32 150.463 53.24 150.079 53.24C149.527 53.24 149.055 53.416 148.663 53.768C148.279 54.12 148.059 54.608 148.003 55.232H152.155ZM154.317 55.688C154.317 55.016 154.453 54.428 154.725 53.924C154.997 53.412 155.369 53.016 155.841 52.736C156.321 52.456 156.857 52.316 157.449 52.316C157.961 52.316 158.437 52.436 158.877 52.676C159.317 52.908 159.653 53.216 159.885 53.6V50.12H160.989V59H159.885V57.764C159.669 58.156 159.349 58.48 158.925 58.736C158.501 58.984 158.005 59.108 157.437 59.108C156.853 59.108 156.321 58.964 155.841 58.676C155.369 58.388 154.997 57.984 154.725 57.464C154.453 56.944 154.317 56.352 154.317 55.688ZM159.885 55.7C159.885 55.204 159.785 54.772 159.585 54.404C159.385 54.036 159.113 53.756 158.769 53.564C158.433 53.364 158.061 53.264 157.653 53.264C157.245 53.264 156.873 53.36 156.537 53.552C156.201 53.744 155.933 54.024 155.733 54.392C155.533 54.76 155.433 55.192 155.433 55.688C155.433 56.192 155.533 56.632 155.733 57.008C155.933 57.376 156.201 57.66 156.537 57.86C156.873 58.052 157.245 58.148 157.653 58.148C158.061 58.148 158.433 58.052 158.769 57.86C159.113 57.66 159.385 57.376 159.585 57.008C159.785 56.632 159.885 56.196 159.885 55.7ZM165.546 52.316C166.114 52.316 166.61 52.44 167.034 52.688C167.466 52.936 167.786 53.248 167.994 53.624V52.424H169.098V59.144C169.098 59.744 168.97 60.276 168.714 60.74C168.458 61.212 168.09 61.58 167.61 61.844C167.138 62.108 166.586 62.24 165.954 62.24C165.09 62.24 164.37 62.036 163.794 61.628C163.218 61.22 162.878 60.664 162.774 59.96H163.854C163.974 60.36 164.222 60.68 164.598 60.92C164.974 61.168 165.426 61.292 165.954 61.292C166.554 61.292 167.042 61.104 167.418 60.728C167.802 60.352 167.994 59.824 167.994 59.144V57.764C167.778 58.148 167.458 58.468 167.034 58.724C166.61 58.98 166.114 59.108 165.546 59.108C164.962 59.108 164.43 58.964 163.95 58.676C163.478 58.388 163.106 57.984 162.834 57.464C162.562 56.944 162.426 56.352 162.426 55.688C162.426 55.016 162.562 54.428 162.834 53.924C163.106 53.412 163.478 53.016 163.95 52.736C164.43 52.456 164.962 52.316 165.546 52.316ZM167.994 55.7C167.994 55.204 167.894 54.772 167.694 54.404C167.494 54.036 167.222 53.756 166.878 53.564C166.542 53.364 166.17 53.264 165.762 53.264C165.354 53.264 164.982 53.36 164.646 53.552C164.31 53.744 164.042 54.024 163.842 54.392C163.642 54.76 163.542 55.192 163.542 55.688C163.542 56.192 163.642 56.632 163.842 57.008C164.042 57.376 164.31 57.66 164.646 57.86C164.982 58.052 165.354 58.148 165.762 58.148C166.17 58.148 166.542 58.052 166.878 57.86C167.222 57.66 167.494 57.376 167.694 57.008C167.894 56.632 167.994 56.196 167.994 55.7ZM176.944 55.46C176.944 55.668 176.932 55.888 176.908 56.12H171.652C171.692 56.768 171.912 57.276 172.312 57.644C172.72 58.004 173.212 58.184 173.788 58.184C174.26 58.184 174.652 58.076 174.964 57.86C175.284 57.636 175.508 57.34 175.636 56.972H176.812C176.636 57.604 176.284 58.12 175.756 58.52C175.228 58.912 174.572 59.108 173.788 59.108C173.164 59.108 172.604 58.968 172.108 58.688C171.62 58.408 171.236 58.012 170.956 57.5C170.676 56.98 170.536 56.38 170.536 55.7C170.536 55.02 170.672 54.424 170.944 53.912C171.216 53.4 171.596 53.008 172.084 52.736C172.58 52.456 173.148 52.316 173.788 52.316C174.412 52.316 174.964 52.452 175.444 52.724C175.924 52.996 176.292 53.372 176.548 53.852C176.812 54.324 176.944 54.86 176.944 55.46ZM175.816 55.232C175.816 54.816 175.724 54.46 175.54 54.164C175.356 53.86 175.104 53.632 174.784 53.48C174.472 53.32 174.124 53.24 173.74 53.24C173.188 53.24 172.716 53.416 172.324 53.768C171.94 54.12 171.72 54.608 171.664 55.232H175.816Z" fill="#344854"/>
</g>
<defs>
<filter id="filter0_d_115_523" x="0" y="0" width="204" height="94" filterUnits="userSpaceOnUse" color-interpolation-filters="sRGB">
<feFlood flood-opacity="0" result="BackgroundImageFix"/>
<feColorMatrix in="SourceAlpha" type="matrix" values="0 0 0 0 0 0 0 0 0 0 0 0 0 0 0 0 0 0 127 0" result="hardAlpha"/>
<feOffset dy="4"/>
<feGaussianBlur stdDeviation="5"/>
<feComposite in2="hardAlpha" operator="out"/>
<feColorMatrix type="matrix" values="0 0 0 0 0 0 0 0 0 0 0 0 0 0 0 0 0 0 0.05 0"/>
<feBlend mode="normal" in2="BackgroundImageFix" result="effect1_dropShadow_115_523"/>
<feBlend mode="normal" in="SourceGraphic" in2="effect1_dropShadow_115_523" result="shape"/>
</filter>
</defs>
</svg>
