<svg width="211" height="94" viewBox="0 0 211 94" fill="none" xmlns="http://www.w3.org/2000/svg">
<g filter="url(#filter0_d_115_538)">
<rect x="10" y="6" width="191" height="74" rx="16" fill="#FAFBFE" shape-rendering="crispEdges"/>
<rect x="26" y="23" width="40" height="40" rx="8" fill="#D9F38E"/>
<path d="M52.6666 42.9999C52.6666 46.6818 49.6819 49.6666 46 49.6666C42.3181 49.6666 39.3333 46.6818 39.3333 42.9999C39.3333 39.318 42.3181 36.3333 46 36.3333C49.6819 36.3333 52.6666 39.318 52.6666 42.9999Z" stroke="#344854" stroke-width="1.25"/>
<path d="M50.8739 38.159C52.5504 37.8494 53.7826 37.9833 54.191 38.6361C55.0336 39.9829 52.0495 43.0285 47.5258 45.4387C43.002 47.8488 38.6517 48.7108 37.8091 47.3639C37.3647 46.6537 37.9846 45.4709 39.3334 44.1581" stroke="#344854" stroke-width="1.25"/>
<path d="M86.832 28.88C88.016 28.88 89.0507 29.1093 89.936 29.568C90.832 30.016 91.52 30.6667 92 31.52C92.4907 32.3627 92.736 33.3493 92.736 34.48C92.736 35.6107 92.4907 36.592 92 37.424C91.52 38.256 90.832 38.896 89.936 39.344C89.0507 39.7813 88.016 40 86.832 40H83.2V28.88H86.832ZM86.832 38.512C88.1333 38.512 89.1307 38.16 89.824 37.456C90.5173 36.752 90.864 35.76 90.864 34.48C90.864 33.1893 90.5173 32.1813 89.824 31.456C89.1307 30.7307 88.1333 30.368 86.832 30.368H85.024V38.512H86.832ZM95.4718 30.016C95.1411 30.016 94.8638 29.904 94.6398 29.68C94.4158 29.456 94.3038 29.1787 94.3038 28.848C94.3038 28.5173 94.4158 28.24 94.6398 28.016C94.8638 27.792 95.1411 27.68 95.4718 27.68C95.7918 27.68 96.0638 27.792 96.2878 28.016C96.5118 28.24 96.6238 28.5173 96.6238 28.848C96.6238 29.1787 96.5118 29.456 96.2878 29.68C96.0638 29.904 95.7918 30.016 95.4718 30.016ZM96.3678 31.184V40H94.5438V31.184H96.3678ZM101.963 40.144C101.269 40.144 100.645 40.0213 100.091 39.776C99.5465 39.52 99.1145 39.1787 98.7945 38.752C98.4745 38.3147 98.3038 37.8293 98.2825 37.296H100.171C100.203 37.6693 100.379 37.984 100.699 38.24C101.029 38.4853 101.44 38.608 101.931 38.608C102.443 38.608 102.837 38.512 103.115 38.32C103.403 38.1173 103.547 37.8613 103.547 37.552C103.547 37.2213 103.387 36.976 103.067 36.816C102.757 36.656 102.261 36.48 101.579 36.288C100.917 36.1067 100.379 35.9307 99.9625 35.76C99.5465 35.5893 99.1838 35.328 98.8745 34.976C98.5758 34.624 98.4265 34.16 98.4265 33.584C98.4265 33.1147 98.5652 32.688 98.8425 32.304C99.1198 31.9093 99.5145 31.6 100.027 31.376C100.549 31.152 101.147 31.04 101.819 31.04C102.821 31.04 103.627 31.296 104.235 31.808C104.853 32.3093 105.184 32.9973 105.227 33.872H103.403C103.371 33.4773 103.211 33.1627 102.923 32.928C102.635 32.6933 102.245 32.576 101.755 32.576C101.275 32.576 100.907 32.6667 100.651 32.848C100.395 33.0293 100.267 33.2693 100.267 33.568C100.267 33.8027 100.352 34 100.523 34.16C100.693 34.32 100.901 34.448 101.147 34.544C101.392 34.6293 101.755 34.7413 102.235 34.88C102.875 35.0507 103.397 35.2267 103.803 35.408C104.219 35.5787 104.576 35.8347 104.875 36.176C105.173 36.5173 105.328 36.9707 105.339 37.536C105.339 38.0373 105.2 38.4853 104.923 38.88C104.645 39.2747 104.251 39.584 103.739 39.808C103.237 40.032 102.645 40.144 101.963 40.144ZM106.701 35.584C106.701 34.6773 106.883 33.8827 107.245 33.2C107.619 32.5067 108.131 31.9733 108.781 31.6C109.432 31.2267 110.179 31.04 111.021 31.04C112.088 31.04 112.968 31.296 113.661 31.808C114.365 32.3093 114.84 33.0293 115.085 33.968H113.117C112.957 33.5307 112.701 33.1893 112.349 32.944C111.997 32.6987 111.555 32.576 111.021 32.576C110.275 32.576 109.677 32.8427 109.229 33.376C108.792 33.8987 108.573 34.6347 108.573 35.584C108.573 36.5333 108.792 37.2747 109.229 37.808C109.677 38.3413 110.275 38.608 111.021 38.608C112.077 38.608 112.776 38.144 113.117 37.216H115.085C114.829 38.112 114.349 38.8267 113.645 39.36C112.941 39.8827 112.067 40.144 111.021 40.144C110.179 40.144 109.432 39.9573 108.781 39.584C108.131 39.2 107.619 38.6667 107.245 37.984C106.883 37.2907 106.701 36.4907 106.701 35.584ZM120.727 40.144C119.895 40.144 119.143 39.9573 118.471 39.584C117.799 39.2 117.271 38.6667 116.887 37.984C116.503 37.2907 116.311 36.4907 116.311 35.584C116.311 34.688 116.508 33.8933 116.903 33.2C117.298 32.5067 117.836 31.9733 118.519 31.6C119.202 31.2267 119.964 31.04 120.807 31.04C121.65 31.04 122.412 31.2267 123.095 31.6C123.778 31.9733 124.316 32.5067 124.711 33.2C125.106 33.8933 125.303 34.688 125.303 35.584C125.303 36.48 125.1 37.2747 124.695 37.968C124.29 38.6613 123.735 39.2 123.031 39.584C122.338 39.9573 121.57 40.144 120.727 40.144ZM120.727 38.56C121.196 38.56 121.634 38.448 122.039 38.224C122.455 38 122.791 37.664 123.047 37.216C123.303 36.768 123.431 36.224 123.431 35.584C123.431 34.944 123.308 34.4053 123.063 33.968C122.818 33.52 122.492 33.184 122.087 32.96C121.682 32.736 121.244 32.624 120.775 32.624C120.306 32.624 119.868 32.736 119.463 32.96C119.068 33.184 118.754 33.52 118.519 33.968C118.284 34.4053 118.167 34.944 118.167 35.584C118.167 36.5333 118.407 37.2693 118.887 37.792C119.378 38.304 119.991 38.56 120.727 38.56ZM130.514 38.368L133.01 31.184H134.946L131.586 40H129.41L126.066 31.184H128.018L130.514 38.368ZM144.405 35.376C144.405 35.7067 144.384 36.0053 144.341 36.272H137.605C137.658 36.976 137.92 37.5413 138.389 37.968C138.858 38.3947 139.434 38.608 140.117 38.608C141.098 38.608 141.792 38.1973 142.197 37.376H144.165C143.898 38.1867 143.413 38.8533 142.709 39.376C142.016 39.888 141.152 40.144 140.117 40.144C139.274 40.144 138.517 39.9573 137.845 39.584C137.184 39.2 136.661 38.6667 136.277 37.984C135.904 37.2907 135.717 36.4907 135.717 35.584C135.717 34.6773 135.898 33.8827 136.261 33.2C136.634 32.5067 137.152 31.9733 137.813 31.6C138.485 31.2267 139.253 31.04 140.117 31.04C140.949 31.04 141.69 31.2213 142.341 31.584C142.992 31.9467 143.498 32.4587 143.861 33.12C144.224 33.7707 144.405 34.5227 144.405 35.376ZM142.501 34.8C142.49 34.128 142.25 33.5893 141.781 33.184C141.312 32.7787 140.73 32.576 140.037 32.576C139.408 32.576 138.869 32.7787 138.421 33.184C137.973 33.5787 137.706 34.1173 137.621 34.8H142.501ZM148.024 32.464C148.291 32.016 148.643 31.6693 149.08 31.424C149.528 31.168 150.056 31.04 150.664 31.04V32.928H150.2C149.485 32.928 148.941 33.1093 148.568 33.472C148.205 33.8347 148.024 34.464 148.024 35.36V40H146.2V31.184H148.024V32.464Z" fill="#344854"/>
<path d="M87.868 57.14H84.22L83.548 59H82.396L85.42 50.684H86.68L89.692 59H88.54L87.868 57.14ZM87.556 56.252L86.044 52.028L84.532 56.252H87.556ZM92.1019 53.492C92.2939 53.116 92.5659 52.824 92.9179 52.616C93.2779 52.408 93.7139 52.304 94.2259 52.304V53.432H93.9379C92.7139 53.432 92.1019 54.096 92.1019 55.424V59H91.0099V52.424H92.1019V53.492ZM98.3545 59.108C97.7385 59.108 97.1785 58.968 96.6745 58.688C96.1785 58.408 95.7865 58.012 95.4985 57.5C95.2185 56.98 95.0785 56.38 95.0785 55.7C95.0785 55.028 95.2225 54.436 95.5105 53.924C95.8065 53.404 96.2065 53.008 96.7105 52.736C97.2145 52.456 97.7785 52.316 98.4025 52.316C99.0265 52.316 99.5905 52.456 100.095 52.736C100.599 53.008 100.995 53.4 101.283 53.912C101.579 54.424 101.727 55.02 101.727 55.7C101.727 56.38 101.575 56.98 101.271 57.5C100.975 58.012 100.571 58.408 100.059 58.688C99.5465 58.968 98.9785 59.108 98.3545 59.108ZM98.3545 58.148C98.7465 58.148 99.1145 58.056 99.4585 57.872C99.8025 57.688 100.079 57.412 100.287 57.044C100.503 56.676 100.611 56.228 100.611 55.7C100.611 55.172 100.507 54.724 100.299 54.356C100.091 53.988 99.8185 53.716 99.4825 53.54C99.1465 53.356 98.7825 53.264 98.3905 53.264C97.9905 53.264 97.6225 53.356 97.2865 53.54C96.9585 53.716 96.6945 53.988 96.4945 54.356C96.2945 54.724 96.1945 55.172 96.1945 55.7C96.1945 56.236 96.2905 56.688 96.4825 57.056C96.6825 57.424 96.9465 57.7 97.2745 57.884C97.6025 58.06 97.9625 58.148 98.3545 58.148ZM108.994 52.424V59H107.902V58.028C107.694 58.364 107.402 58.628 107.026 58.82C106.658 59.004 106.25 59.096 105.802 59.096C105.29 59.096 104.83 58.992 104.422 58.784C104.014 58.568 103.69 58.248 103.45 57.824C103.218 57.4 103.102 56.884 103.102 56.276V52.424H104.182V56.132C104.182 56.78 104.346 57.28 104.674 57.632C105.002 57.976 105.45 58.148 106.018 58.148C106.602 58.148 107.062 57.968 107.398 57.608C107.734 57.248 107.902 56.724 107.902 56.036V52.424H108.994ZM114.042 52.304C114.842 52.304 115.49 52.548 115.986 53.036C116.482 53.516 116.73 54.212 116.73 55.124V59H115.65V55.28C115.65 54.624 115.486 54.124 115.158 53.78C114.83 53.428 114.382 53.252 113.814 53.252C113.238 53.252 112.778 53.432 112.434 53.792C112.098 54.152 111.93 54.676 111.93 55.364V59H110.838V52.424H111.93V53.36C112.146 53.024 112.438 52.764 112.806 52.58C113.182 52.396 113.594 52.304 114.042 52.304ZM118.106 55.688C118.106 55.016 118.242 54.428 118.514 53.924C118.786 53.412 119.158 53.016 119.63 52.736C120.11 52.456 120.646 52.316 121.238 52.316C121.75 52.316 122.226 52.436 122.666 52.676C123.106 52.908 123.442 53.216 123.674 53.6V50.12H124.778V59H123.674V57.764C123.458 58.156 123.138 58.48 122.714 58.736C122.29 58.984 121.794 59.108 121.226 59.108C120.642 59.108 120.11 58.964 119.63 58.676C119.158 58.388 118.786 57.984 118.514 57.464C118.242 56.944 118.106 56.352 118.106 55.688ZM123.674 55.7C123.674 55.204 123.574 54.772 123.374 54.404C123.174 54.036 122.902 53.756 122.558 53.564C122.222 53.364 121.85 53.264 121.442 53.264C121.034 53.264 120.662 53.36 120.326 53.552C119.99 53.744 119.722 54.024 119.522 54.392C119.322 54.76 119.222 55.192 119.222 55.688C119.222 56.192 119.322 56.632 119.522 57.008C119.722 57.376 119.99 57.66 120.326 57.86C120.662 58.052 121.034 58.148 121.442 58.148C121.85 58.148 122.222 58.052 122.558 57.86C122.902 57.66 123.174 57.376 123.374 57.008C123.574 56.632 123.674 56.196 123.674 55.7ZM131.154 53.324V57.2C131.154 57.52 131.222 57.748 131.358 57.884C131.494 58.012 131.73 58.076 132.066 58.076H132.87V59H131.886C131.278 59 130.822 58.86 130.518 58.58C130.214 58.3 130.062 57.84 130.062 57.2V53.324H129.21V52.424H130.062V50.768H131.154V52.424H132.87V53.324H131.154ZM137.458 52.304C137.954 52.304 138.402 52.412 138.802 52.628C139.202 52.836 139.514 53.152 139.738 53.576C139.97 54 140.086 54.516 140.086 55.124V59H139.006V55.28C139.006 54.624 138.842 54.124 138.514 53.78C138.186 53.428 137.738 53.252 137.17 53.252C136.594 53.252 136.134 53.432 135.79 53.792C135.454 54.152 135.286 54.676 135.286 55.364V59H134.194V50.12H135.286V53.36C135.502 53.024 135.798 52.764 136.174 52.58C136.558 52.396 136.986 52.304 137.458 52.304ZM147.869 55.46C147.869 55.668 147.857 55.888 147.833 56.12H142.577C142.617 56.768 142.837 57.276 143.237 57.644C143.645 58.004 144.137 58.184 144.713 58.184C145.185 58.184 145.577 58.076 145.889 57.86C146.209 57.636 146.433 57.34 146.561 56.972H147.737C147.561 57.604 147.209 58.12 146.681 58.52C146.153 58.912 145.497 59.108 144.713 59.108C144.089 59.108 143.529 58.968 143.033 58.688C142.545 58.408 142.161 58.012 141.881 57.5C141.601 56.98 141.461 56.38 141.461 55.7C141.461 55.02 141.597 54.424 141.869 53.912C142.141 53.4 142.521 53.008 143.009 52.736C143.505 52.456 144.073 52.316 144.713 52.316C145.337 52.316 145.889 52.452 146.369 52.724C146.849 52.996 147.217 53.372 147.473 53.852C147.737 54.324 147.869 54.86 147.869 55.46ZM146.741 55.232C146.741 54.816 146.649 54.46 146.465 54.164C146.281 53.86 146.029 53.632 145.709 53.48C145.397 53.32 145.049 53.24 144.665 53.24C144.113 53.24 143.641 53.416 143.249 53.768C142.865 54.12 142.645 54.608 142.589 55.232H146.741ZM161.27 52.424L159.218 59H158.09L156.506 53.78L154.922 59H153.794L151.73 52.424H152.846L154.358 57.944L155.99 52.424H157.106L158.702 57.956L160.19 52.424H161.27ZM165.222 59.108C164.606 59.108 164.046 58.968 163.542 58.688C163.046 58.408 162.654 58.012 162.366 57.5C162.086 56.98 161.946 56.38 161.946 55.7C161.946 55.028 162.09 54.436 162.378 53.924C162.674 53.404 163.074 53.008 163.578 52.736C164.082 52.456 164.646 52.316 165.27 52.316C165.894 52.316 166.458 52.456 166.962 52.736C167.466 53.008 167.862 53.4 168.15 53.912C168.446 54.424 168.594 55.02 168.594 55.7C168.594 56.38 168.442 56.98 168.138 57.5C167.842 58.012 167.438 58.408 166.926 58.688C166.414 58.968 165.846 59.108 165.222 59.108ZM165.222 58.148C165.614 58.148 165.982 58.056 166.326 57.872C166.67 57.688 166.946 57.412 167.154 57.044C167.37 56.676 167.478 56.228 167.478 55.7C167.478 55.172 167.374 54.724 167.166 54.356C166.958 53.988 166.686 53.716 166.35 53.54C166.014 53.356 165.65 53.264 165.258 53.264C164.858 53.264 164.49 53.356 164.154 53.54C163.826 53.716 163.562 53.988 163.362 54.356C163.162 54.724 163.062 55.172 163.062 55.7C163.062 56.236 163.158 56.688 163.35 57.056C163.55 57.424 163.814 57.7 164.142 57.884C164.47 58.06 164.83 58.148 165.222 58.148ZM171.121 53.492C171.313 53.116 171.585 52.824 171.937 52.616C172.297 52.408 172.733 52.304 173.245 52.304V53.432H172.957C171.733 53.432 171.121 54.096 171.121 55.424V59H170.029V52.424H171.121V53.492ZM175.598 50.12V59H174.506V50.12H175.598ZM177.051 55.688C177.051 55.016 177.187 54.428 177.459 53.924C177.731 53.412 178.103 53.016 178.575 52.736C179.055 52.456 179.591 52.316 180.183 52.316C180.695 52.316 181.171 52.436 181.611 52.676C182.051 52.908 182.387 53.216 182.619 53.6V50.12H183.723V59H182.619V57.764C182.403 58.156 182.083 58.48 181.659 58.736C181.235 58.984 180.739 59.108 180.171 59.108C179.587 59.108 179.055 58.964 178.575 58.676C178.103 58.388 177.731 57.984 177.459 57.464C177.187 56.944 177.051 56.352 177.051 55.688ZM182.619 55.7C182.619 55.204 182.519 54.772 182.319 54.404C182.119 54.036 181.847 53.756 181.503 53.564C181.167 53.364 180.795 53.264 180.387 53.264C179.979 53.264 179.607 53.36 179.271 53.552C178.935 53.744 178.667 54.024 178.467 54.392C178.267 54.76 178.167 55.192 178.167 55.688C178.167 56.192 178.267 56.632 178.467 57.008C178.667 57.376 178.935 57.66 179.271 57.86C179.607 58.052 179.979 58.148 180.387 58.148C180.795 58.148 181.167 58.052 181.503 57.86C181.847 57.66 182.119 57.376 182.319 57.008C182.519 56.632 182.619 56.196 182.619 55.7Z" fill="#344854"/>
</g>
<defs>
<filter id="filter0_d_115_538" x="0" y="0" width="211" height="94" filterUnits="userSpaceOnUse" color-interpolation-filters="sRGB">
<feFlood flood-opacity="0" result="BackgroundImageFix"/>
<feColorMatrix in="SourceAlpha" type="matrix" values="0 0 0 0 0 0 0 0 0 0 0 0 0 0 0 0 0 0 127 0" result="hardAlpha"/>
<feOffset dy="4"/>
<feGaussianBlur stdDeviation="5"/>
<feComposite in2="hardAlpha" operator="out"/>
<feColorMatrix type="matrix" values="0 0 0 0 0 0 0 0 0 0 0 0 0 0 0 0 0 0 0.05 0"/>
<feBlend mode="normal" in2="BackgroundImageFix" result="effect1_dropShadow_115_538"/>
<feBlend mode="normal" in="SourceGraphic" in2="effect1_dropShadow_115_538" result="shape"/>
</filter>
</defs>
</svg>
