<svg width="175" height="94" viewBox="0 0 175 94" fill="none" xmlns="http://www.w3.org/2000/svg">
<g filter="url(#filter0_d_115_528)">
<rect x="10" y="6" width="155" height="74" rx="16" fill="#FAFBFE" shape-rendering="crispEdges"/>
<rect x="26" y="23" width="40" height="40" rx="8" fill="#D9F38E"/>
<path d="M54.3334 38.8334L48.1836 44.9456C47.3522 45.7719 46.9366 46.1851 46.4209 46.185C45.9053 46.185 45.4897 45.7717 44.6585 44.9452L44.4591 44.7469C43.6271 43.9196 43.2112 43.506 42.6952 43.5062C42.1792 43.5064 41.7636 43.9203 40.9322 44.7481L37.6667 48M54.3334 38.8334V43.4549M54.3334 38.8334H49.6816" stroke="#344854" stroke-width="1.25" stroke-linecap="round" stroke-linejoin="round"/>
<path d="M91.248 32.08C90.96 31.5253 90.56 31.1093 90.048 30.832C89.536 30.544 88.944 30.4 88.272 30.4C87.536 30.4 86.88 30.5653 86.304 30.896C85.728 31.2267 85.2747 31.696 84.944 32.304C84.624 32.912 84.464 33.616 84.464 34.416C84.464 35.216 84.624 35.9253 84.944 36.544C85.2747 37.152 85.728 37.6213 86.304 37.952C86.88 38.2827 87.536 38.448 88.272 38.448C89.264 38.448 90.0693 38.1707 90.688 37.616C91.3067 37.0613 91.6853 36.3093 91.824 35.36H87.648V33.904H93.776V35.328C93.6587 36.192 93.3493 36.9867 92.848 37.712C92.3573 38.4373 91.712 39.0187 90.912 39.456C90.1227 39.8827 89.2427 40.096 88.272 40.096C87.2267 40.096 86.272 39.856 85.408 39.376C84.544 38.8853 83.856 38.208 83.344 37.344C82.8427 36.48 82.592 35.504 82.592 34.416C82.592 33.328 82.8427 32.352 83.344 31.488C83.856 30.624 84.544 29.952 85.408 29.472C86.2827 28.9813 87.2373 28.736 88.272 28.736C89.456 28.736 90.5067 29.0293 91.424 29.616C92.352 30.192 93.024 31.0133 93.44 32.08H91.248ZM97.399 32.464C97.6657 32.016 98.0177 31.6693 98.455 31.424C98.903 31.168 99.431 31.04 100.039 31.04V32.928H99.575C98.8603 32.928 98.3163 33.1093 97.943 33.472C97.5803 33.8347 97.399 34.464 97.399 35.36V40H95.575V31.184H97.399V32.464ZM105.54 40.144C104.708 40.144 103.956 39.9573 103.284 39.584C102.612 39.2 102.084 38.6667 101.7 37.984C101.316 37.2907 101.124 36.4907 101.124 35.584C101.124 34.688 101.321 33.8933 101.716 33.2C102.11 32.5067 102.649 31.9733 103.332 31.6C104.014 31.2267 104.777 31.04 105.62 31.04C106.462 31.04 107.225 31.2267 107.908 31.6C108.59 31.9733 109.129 32.5067 109.524 33.2C109.918 33.8933 110.116 34.688 110.116 35.584C110.116 36.48 109.913 37.2747 109.508 37.968C109.102 38.6613 108.548 39.2 107.844 39.584C107.15 39.9573 106.382 40.144 105.54 40.144ZM105.54 38.56C106.009 38.56 106.446 38.448 106.852 38.224C107.268 38 107.604 37.664 107.86 37.216C108.116 36.768 108.244 36.224 108.244 35.584C108.244 34.944 108.121 34.4053 107.876 33.968C107.63 33.52 107.305 33.184 106.9 32.96C106.494 32.736 106.057 32.624 105.588 32.624C105.118 32.624 104.681 32.736 104.276 32.96C103.881 33.184 103.566 33.52 103.332 33.968C103.097 34.4053 102.98 34.944 102.98 35.584C102.98 36.5333 103.22 37.2693 103.7 37.792C104.19 38.304 104.804 38.56 105.54 38.56ZM123.759 31.184L121.023 40H119.103L117.327 33.488L115.551 40H113.631L110.879 31.184H112.735L114.575 38.272L116.447 31.184H118.351L120.143 38.24L121.967 31.184H123.759Z" fill="#344854"/>
<path d="M88.072 50.636V51.524H85.792V59H84.7V51.524H82.408V50.636H88.072ZM90.5082 53.492C90.7002 53.116 90.9722 52.824 91.3242 52.616C91.6842 52.408 92.1202 52.304 92.6322 52.304V53.432H92.3442C91.1202 53.432 90.5082 54.096 90.5082 55.424V59H89.4162V52.424H90.5082V53.492ZM99.8928 55.46C99.8928 55.668 99.8808 55.888 99.8568 56.12H94.6008C94.6408 56.768 94.8608 57.276 95.2608 57.644C95.6688 58.004 96.1608 58.184 96.7368 58.184C97.2088 58.184 97.6008 58.076 97.9128 57.86C98.2328 57.636 98.4568 57.34 98.5848 56.972H99.7608C99.5848 57.604 99.2328 58.12 98.7048 58.52C98.1768 58.912 97.5208 59.108 96.7368 59.108C96.1128 59.108 95.5528 58.968 95.0568 58.688C94.5688 58.408 94.1848 58.012 93.9048 57.5C93.6248 56.98 93.4848 56.38 93.4848 55.7C93.4848 55.02 93.6208 54.424 93.8928 53.912C94.1648 53.4 94.5448 53.008 95.0328 52.736C95.5288 52.456 96.0968 52.316 96.7368 52.316C97.3608 52.316 97.9128 52.452 98.3928 52.724C98.8728 52.996 99.2408 53.372 99.4968 53.852C99.7608 54.324 99.8928 54.86 99.8928 55.46ZM98.7648 55.232C98.7648 54.816 98.6728 54.46 98.4888 54.164C98.3048 53.86 98.0528 53.632 97.7328 53.48C97.4208 53.32 97.0728 53.24 96.6888 53.24C96.1368 53.24 95.6648 53.416 95.2728 53.768C94.8888 54.12 94.6688 54.608 94.6128 55.232H98.7648ZM107.334 55.46C107.334 55.668 107.322 55.888 107.298 56.12H102.042C102.082 56.768 102.302 57.276 102.702 57.644C103.11 58.004 103.602 58.184 104.178 58.184C104.65 58.184 105.042 58.076 105.354 57.86C105.674 57.636 105.898 57.34 106.026 56.972H107.202C107.026 57.604 106.674 58.12 106.146 58.52C105.618 58.912 104.962 59.108 104.178 59.108C103.554 59.108 102.994 58.968 102.498 58.688C102.01 58.408 101.626 58.012 101.346 57.5C101.066 56.98 100.926 56.38 100.926 55.7C100.926 55.02 101.062 54.424 101.334 53.912C101.606 53.4 101.986 53.008 102.474 52.736C102.97 52.456 103.538 52.316 104.178 52.316C104.802 52.316 105.354 52.452 105.834 52.724C106.314 52.996 106.682 53.372 106.938 53.852C107.202 54.324 107.334 54.86 107.334 55.46ZM106.206 55.232C106.206 54.816 106.114 54.46 105.93 54.164C105.746 53.86 105.494 53.632 105.174 53.48C104.862 53.32 104.514 53.24 104.13 53.24C103.578 53.24 103.106 53.416 102.714 53.768C102.33 54.12 102.11 54.608 102.054 55.232H106.206ZM113.067 50.12V59H111.975V50.12H113.067ZM115.492 51.356C115.284 51.356 115.108 51.284 114.964 51.14C114.82 50.996 114.748 50.82 114.748 50.612C114.748 50.404 114.82 50.228 114.964 50.084C115.108 49.94 115.284 49.868 115.492 49.868C115.692 49.868 115.86 49.94 115.996 50.084C116.14 50.228 116.212 50.404 116.212 50.612C116.212 50.82 116.14 50.996 115.996 51.14C115.86 51.284 115.692 51.356 115.492 51.356ZM116.02 52.424V59H114.928V52.424H116.02ZM118.973 53.648C119.197 53.256 119.525 52.936 119.957 52.688C120.389 52.44 120.881 52.316 121.433 52.316C122.025 52.316 122.557 52.456 123.029 52.736C123.501 53.016 123.873 53.412 124.145 53.924C124.417 54.428 124.553 55.016 124.553 55.688C124.553 56.352 124.417 56.944 124.145 57.464C123.873 57.984 123.497 58.388 123.017 58.676C122.545 58.964 122.017 59.108 121.433 59.108C120.865 59.108 120.365 58.984 119.933 58.736C119.509 58.488 119.189 58.172 118.973 57.788V59H117.881V50.12H118.973V53.648ZM123.437 55.688C123.437 55.192 123.337 54.76 123.137 54.392C122.937 54.024 122.665 53.744 122.321 53.552C121.985 53.36 121.613 53.264 121.205 53.264C120.805 53.264 120.433 53.364 120.089 53.564C119.753 53.756 119.481 54.04 119.273 54.416C119.073 54.784 118.973 55.212 118.973 55.7C118.973 56.196 119.073 56.632 119.273 57.008C119.481 57.376 119.753 57.66 120.089 57.86C120.433 58.052 120.805 58.148 121.205 58.148C121.613 58.148 121.985 58.052 122.321 57.86C122.665 57.66 122.937 57.376 123.137 57.008C123.337 56.632 123.437 56.192 123.437 55.688ZM127.082 53.492C127.274 53.116 127.546 52.824 127.898 52.616C128.258 52.408 128.694 52.304 129.206 52.304V53.432H128.918C127.694 53.432 127.082 54.096 127.082 55.424V59H125.99V52.424H127.082V53.492ZM130.059 55.688C130.059 55.016 130.195 54.428 130.467 53.924C130.739 53.412 131.111 53.016 131.583 52.736C132.063 52.456 132.595 52.316 133.179 52.316C133.755 52.316 134.255 52.44 134.679 52.688C135.103 52.936 135.419 53.248 135.627 53.624V52.424H136.731V59H135.627V57.776C135.411 58.16 135.087 58.48 134.655 58.736C134.231 58.984 133.735 59.108 133.167 59.108C132.583 59.108 132.055 58.964 131.583 58.676C131.111 58.388 130.739 57.984 130.467 57.464C130.195 56.944 130.059 56.352 130.059 55.688ZM135.627 55.7C135.627 55.204 135.527 54.772 135.327 54.404C135.127 54.036 134.855 53.756 134.511 53.564C134.175 53.364 133.803 53.264 133.395 53.264C132.987 53.264 132.615 53.36 132.279 53.552C131.943 53.744 131.675 54.024 131.475 54.392C131.275 54.76 131.175 55.192 131.175 55.688C131.175 56.192 131.275 56.632 131.475 57.008C131.675 57.376 131.943 57.66 132.279 57.86C132.615 58.052 132.987 58.148 133.395 58.148C133.803 58.148 134.175 58.052 134.511 57.86C134.855 57.66 135.127 57.376 135.327 57.008C135.527 56.632 135.627 56.196 135.627 55.7ZM139.668 53.492C139.86 53.116 140.132 52.824 140.484 52.616C140.844 52.408 141.28 52.304 141.792 52.304V53.432H141.504C140.28 53.432 139.668 54.096 139.668 55.424V59H138.576V52.424H139.668V53.492ZM148.717 52.424L144.757 62.096H143.629L144.925 58.928L142.273 52.424H143.485L145.549 57.752L147.589 52.424H148.717Z" fill="#344854"/>
</g>
<defs>
<filter id="filter0_d_115_528" x="0" y="0" width="175" height="94" filterUnits="userSpaceOnUse" color-interpolation-filters="sRGB">
<feFlood flood-opacity="0" result="BackgroundImageFix"/>
<feColorMatrix in="SourceAlpha" type="matrix" values="0 0 0 0 0 0 0 0 0 0 0 0 0 0 0 0 0 0 127 0" result="hardAlpha"/>
<feOffset dy="4"/>
<feGaussianBlur stdDeviation="5"/>
<feComposite in2="hardAlpha" operator="out"/>
<feColorMatrix type="matrix" values="0 0 0 0 0 0 0 0 0 0 0 0 0 0 0 0 0 0 0.05 0"/>
<feBlend mode="normal" in2="BackgroundImageFix" result="effect1_dropShadow_115_528"/>
<feBlend mode="normal" in="SourceGraphic" in2="effect1_dropShadow_115_528" result="shape"/>
</filter>
</defs>
</svg>
