<svg width="197" height="94" viewBox="0 0 197 94" fill="none" xmlns="http://www.w3.org/2000/svg">
<g filter="url(#filter0_d_115_533)">
<rect x="10" y="6" width="177" height="74" rx="16" fill="#FAFBFE" shape-rendering="crispEdges"/>
<rect x="26" y="23" width="40" height="40" rx="8" fill="#D9F38E"/>
<circle cx="46" cy="43.0001" r="8.33333" stroke="#344854" stroke-width="1.25"/>
<path d="M44.4375 40.3958C44.4375 39.5328 45.1371 38.8333 46 38.8333C46.8629 38.8333 47.5625 39.5328 47.5625 40.3958C47.5625 40.9686 47.2542 41.4695 46.7945 41.7415C46.3984 41.9758 46 42.3313 46 42.7916V43.8333" stroke="#344854" stroke-width="1.25" stroke-linecap="round"/>
<circle cx="46" cy="46.3333" r="0.833333" fill="#344854"/>
<path d="M89.904 37.728H85.248L84.448 40H82.544L86.528 28.864H88.64L92.624 40H90.704L89.904 37.728ZM89.392 36.24L87.584 31.072L85.76 36.24H89.392ZM97.5563 40.144C96.8629 40.144 96.2389 40.0213 95.6843 39.776C95.1403 39.52 94.7083 39.1787 94.3883 38.752C94.0683 38.3147 93.8976 37.8293 93.8763 37.296H95.7643C95.7963 37.6693 95.9723 37.984 96.2923 38.24C96.6229 38.4853 97.0336 38.608 97.5243 38.608C98.0363 38.608 98.4309 38.512 98.7083 38.32C98.9963 38.1173 99.1403 37.8613 99.1403 37.552C99.1403 37.2213 98.9803 36.976 98.6603 36.816C98.3509 36.656 97.8549 36.48 97.1723 36.288C96.5109 36.1067 95.9723 35.9307 95.5563 35.76C95.1403 35.5893 94.7776 35.328 94.4683 34.976C94.1696 34.624 94.0203 34.16 94.0203 33.584C94.0203 33.1147 94.1589 32.688 94.4363 32.304C94.7136 31.9093 95.1083 31.6 95.6203 31.376C96.1429 31.152 96.7403 31.04 97.4123 31.04C98.4149 31.04 99.2203 31.296 99.8283 31.808C100.447 32.3093 100.778 32.9973 100.82 33.872H98.9963C98.9643 33.4773 98.8043 33.1627 98.5163 32.928C98.2283 32.6933 97.8389 32.576 97.3483 32.576C96.8683 32.576 96.5003 32.6667 96.2443 32.848C95.9883 33.0293 95.8603 33.2693 95.8603 33.568C95.8603 33.8027 95.9456 34 96.1163 34.16C96.2869 34.32 96.4949 34.448 96.7403 34.544C96.9856 34.6293 97.3483 34.7413 97.8283 34.88C98.4683 35.0507 98.9909 35.2267 99.3963 35.408C99.8123 35.5787 100.17 35.8347 100.468 36.176C100.767 36.5173 100.922 36.9707 100.932 37.536C100.932 38.0373 100.794 38.4853 100.516 38.88C100.239 39.2747 99.8443 39.584 99.3323 39.808C98.8309 40.032 98.2389 40.144 97.5563 40.144ZM106.391 35.6L110.455 40H107.991L104.727 36.208V40H102.903V28.16H104.727V35.04L107.927 31.184H110.455L106.391 35.6Z" fill="#344854"/>
<path d="M88.78 50.636L86.056 55.844V59H84.964V55.844L82.228 50.636H83.44L85.504 54.872L87.568 50.636H88.78ZM92.7998 59.108C92.1838 59.108 91.6238 58.968 91.1198 58.688C90.6238 58.408 90.2318 58.012 89.9438 57.5C89.6638 56.98 89.5238 56.38 89.5238 55.7C89.5238 55.028 89.6678 54.436 89.9558 53.924C90.2518 53.404 90.6518 53.008 91.1558 52.736C91.6598 52.456 92.2238 52.316 92.8478 52.316C93.4718 52.316 94.0358 52.456 94.5398 52.736C95.0438 53.008 95.4398 53.4 95.7278 53.912C96.0238 54.424 96.1718 55.02 96.1718 55.7C96.1718 56.38 96.0198 56.98 95.7158 57.5C95.4198 58.012 95.0158 58.408 94.5038 58.688C93.9918 58.968 93.4238 59.108 92.7998 59.108ZM92.7998 58.148C93.1918 58.148 93.5598 58.056 93.9038 57.872C94.2478 57.688 94.5238 57.412 94.7318 57.044C94.9478 56.676 95.0558 56.228 95.0558 55.7C95.0558 55.172 94.9518 54.724 94.7438 54.356C94.5358 53.988 94.2638 53.716 93.9278 53.54C93.5918 53.356 93.2278 53.264 92.8358 53.264C92.4358 53.264 92.0678 53.356 91.7318 53.54C91.4038 53.716 91.1398 53.988 90.9398 54.356C90.7398 54.724 90.6398 55.172 90.6398 55.7C90.6398 56.236 90.7358 56.688 90.9278 57.056C91.1278 57.424 91.3918 57.7 91.7198 57.884C92.0478 58.06 92.4078 58.148 92.7998 58.148ZM103.44 52.424V59H102.348V58.028C102.14 58.364 101.848 58.628 101.472 58.82C101.104 59.004 100.696 59.096 100.248 59.096C99.7356 59.096 99.2756 58.992 98.8676 58.784C98.4596 58.568 98.1356 58.248 97.8956 57.824C97.6636 57.4 97.5476 56.884 97.5476 56.276V52.424H98.6276V56.132C98.6276 56.78 98.7916 57.28 99.1196 57.632C99.4476 57.976 99.8956 58.148 100.464 58.148C101.048 58.148 101.508 57.968 101.844 57.608C102.18 57.248 102.348 56.724 102.348 56.036V52.424H103.44ZM106.375 53.492C106.567 53.116 106.839 52.824 107.191 52.616C107.551 52.408 107.987 52.304 108.499 52.304V53.432H108.211C106.987 53.432 106.375 54.096 106.375 55.424V59H105.283V52.424H106.375V53.492ZM112.551 55.688C112.551 55.016 112.687 54.428 112.959 53.924C113.231 53.412 113.603 53.016 114.075 52.736C114.555 52.456 115.091 52.316 115.683 52.316C116.251 52.316 116.747 52.444 117.171 52.7C117.603 52.948 117.919 53.256 118.119 53.624V52.424H119.223V62.12H118.119V57.788C117.911 58.156 117.591 58.468 117.159 58.724C116.727 58.98 116.223 59.108 115.647 59.108C115.071 59.108 114.547 58.964 114.075 58.676C113.603 58.388 113.231 57.984 112.959 57.464C112.687 56.944 112.551 56.352 112.551 55.688ZM118.119 55.7C118.119 55.204 118.019 54.772 117.819 54.404C117.619 54.036 117.347 53.756 117.003 53.564C116.667 53.364 116.295 53.264 115.887 53.264C115.479 53.264 115.107 53.36 114.771 53.552C114.435 53.744 114.167 54.024 113.967 54.392C113.767 54.76 113.667 55.192 113.667 55.688C113.667 56.192 113.767 56.632 113.967 57.008C114.167 57.376 114.435 57.66 114.771 57.86C115.107 58.052 115.479 58.148 115.887 58.148C116.295 58.148 116.667 58.052 117.003 57.86C117.347 57.66 117.619 57.376 117.819 57.008C118.019 56.632 118.119 56.196 118.119 55.7ZM126.901 52.424V59H125.809V58.028C125.601 58.364 125.309 58.628 124.933 58.82C124.565 59.004 124.157 59.096 123.709 59.096C123.197 59.096 122.737 58.992 122.329 58.784C121.921 58.568 121.597 58.248 121.357 57.824C121.125 57.4 121.009 56.884 121.009 56.276V52.424H122.089V56.132C122.089 56.78 122.253 57.28 122.581 57.632C122.909 57.976 123.357 58.148 123.925 58.148C124.509 58.148 124.969 57.968 125.305 57.608C125.641 57.248 125.809 56.724 125.809 56.036V52.424H126.901ZM134.744 55.46C134.744 55.668 134.732 55.888 134.708 56.12H129.452C129.492 56.768 129.712 57.276 130.112 57.644C130.52 58.004 131.012 58.184 131.588 58.184C132.06 58.184 132.452 58.076 132.764 57.86C133.084 57.636 133.308 57.34 133.436 56.972H134.612C134.436 57.604 134.084 58.12 133.556 58.52C133.028 58.912 132.372 59.108 131.588 59.108C130.964 59.108 130.404 58.968 129.908 58.688C129.42 58.408 129.036 58.012 128.756 57.5C128.476 56.98 128.336 56.38 128.336 55.7C128.336 55.02 128.472 54.424 128.744 53.912C129.016 53.4 129.396 53.008 129.884 52.736C130.38 52.456 130.948 52.316 131.588 52.316C132.212 52.316 132.764 52.452 133.244 52.724C133.724 52.996 134.092 53.372 134.348 53.852C134.612 54.324 134.744 54.86 134.744 55.46ZM133.616 55.232C133.616 54.816 133.524 54.46 133.34 54.164C133.156 53.86 132.904 53.632 132.584 53.48C132.272 53.32 131.924 53.24 131.54 53.24C130.988 53.24 130.516 53.416 130.124 53.768C129.74 54.12 129.52 54.608 129.464 55.232H133.616ZM138.514 59.108C138.01 59.108 137.558 59.024 137.158 58.856C136.758 58.68 136.442 58.44 136.21 58.136C135.978 57.824 135.85 57.468 135.826 57.068H136.954C136.986 57.396 137.138 57.664 137.41 57.872C137.69 58.08 138.054 58.184 138.502 58.184C138.918 58.184 139.246 58.092 139.486 57.908C139.726 57.724 139.846 57.492 139.846 57.212C139.846 56.924 139.718 56.712 139.462 56.576C139.206 56.432 138.81 56.292 138.274 56.156C137.786 56.028 137.386 55.9 137.074 55.772C136.77 55.636 136.506 55.44 136.282 55.184C136.066 54.92 135.958 54.576 135.958 54.152C135.958 53.816 136.058 53.508 136.258 53.228C136.458 52.948 136.742 52.728 137.11 52.568C137.478 52.4 137.898 52.316 138.37 52.316C139.098 52.316 139.686 52.5 140.134 52.868C140.582 53.236 140.822 53.74 140.854 54.38H139.762C139.738 54.036 139.598 53.76 139.342 53.552C139.094 53.344 138.758 53.24 138.334 53.24C137.942 53.24 137.63 53.324 137.398 53.492C137.166 53.66 137.05 53.88 137.05 54.152C137.05 54.368 137.118 54.548 137.254 54.692C137.398 54.828 137.574 54.94 137.782 55.028C137.998 55.108 138.294 55.2 138.67 55.304C139.142 55.432 139.526 55.56 139.822 55.688C140.118 55.808 140.37 55.992 140.578 56.24C140.794 56.488 140.906 56.812 140.914 57.212C140.914 57.572 140.814 57.896 140.614 58.184C140.414 58.472 140.13 58.7 139.762 58.868C139.402 59.028 138.986 59.108 138.514 59.108ZM143.787 53.324V57.2C143.787 57.52 143.855 57.748 143.991 57.884C144.127 58.012 144.363 58.076 144.699 58.076H145.503V59H144.519C143.911 59 143.455 58.86 143.151 58.58C142.847 58.3 142.695 57.84 142.695 57.2V53.324H141.843V52.424H142.695V50.768H143.787V52.424H145.503V53.324H143.787ZM147.39 51.356C147.182 51.356 147.006 51.284 146.862 51.14C146.718 50.996 146.646 50.82 146.646 50.612C146.646 50.404 146.718 50.228 146.862 50.084C147.006 49.94 147.182 49.868 147.39 49.868C147.59 49.868 147.758 49.94 147.894 50.084C148.038 50.228 148.11 50.404 148.11 50.612C148.11 50.82 148.038 50.996 147.894 51.14C147.758 51.284 147.59 51.356 147.39 51.356ZM147.918 52.424V59H146.826V52.424H147.918ZM152.647 59.108C152.031 59.108 151.471 58.968 150.967 58.688C150.471 58.408 150.079 58.012 149.791 57.5C149.511 56.98 149.371 56.38 149.371 55.7C149.371 55.028 149.515 54.436 149.803 53.924C150.099 53.404 150.499 53.008 151.003 52.736C151.507 52.456 152.071 52.316 152.695 52.316C153.319 52.316 153.883 52.456 154.387 52.736C154.891 53.008 155.287 53.4 155.575 53.912C155.871 54.424 156.019 55.02 156.019 55.7C156.019 56.38 155.867 56.98 155.563 57.5C155.267 58.012 154.863 58.408 154.351 58.688C153.839 58.968 153.271 59.108 152.647 59.108ZM152.647 58.148C153.039 58.148 153.407 58.056 153.751 57.872C154.095 57.688 154.371 57.412 154.579 57.044C154.795 56.676 154.903 56.228 154.903 55.7C154.903 55.172 154.799 54.724 154.591 54.356C154.383 53.988 154.111 53.716 153.775 53.54C153.439 53.356 153.075 53.264 152.683 53.264C152.283 53.264 151.915 53.356 151.579 53.54C151.251 53.716 150.987 53.988 150.787 54.356C150.587 54.724 150.487 55.172 150.487 55.7C150.487 56.236 150.583 56.688 150.775 57.056C150.975 57.424 151.239 57.7 151.567 57.884C151.895 58.06 152.255 58.148 152.647 58.148ZM160.659 52.304C161.459 52.304 162.107 52.548 162.603 53.036C163.099 53.516 163.347 54.212 163.347 55.124V59H162.267V55.28C162.267 54.624 162.103 54.124 161.775 53.78C161.447 53.428 160.999 53.252 160.431 53.252C159.855 53.252 159.395 53.432 159.051 53.792C158.715 54.152 158.547 54.676 158.547 55.364V59H157.455V52.424H158.547V53.36C158.763 53.024 159.055 52.764 159.423 52.58C159.799 52.396 160.211 52.304 160.659 52.304ZM167.459 59.108C166.955 59.108 166.503 59.024 166.103 58.856C165.703 58.68 165.387 58.44 165.155 58.136C164.923 57.824 164.795 57.468 164.771 57.068H165.899C165.931 57.396 166.083 57.664 166.355 57.872C166.635 58.08 166.999 58.184 167.447 58.184C167.863 58.184 168.191 58.092 168.431 57.908C168.671 57.724 168.791 57.492 168.791 57.212C168.791 56.924 168.663 56.712 168.407 56.576C168.151 56.432 167.755 56.292 167.219 56.156C166.731 56.028 166.331 55.9 166.019 55.772C165.715 55.636 165.451 55.44 165.227 55.184C165.011 54.92 164.903 54.576 164.903 54.152C164.903 53.816 165.003 53.508 165.203 53.228C165.403 52.948 165.687 52.728 166.055 52.568C166.423 52.4 166.843 52.316 167.315 52.316C168.043 52.316 168.631 52.5 169.079 52.868C169.527 53.236 169.767 53.74 169.799 54.38H168.707C168.683 54.036 168.543 53.76 168.287 53.552C168.039 53.344 167.703 53.24 167.279 53.24C166.887 53.24 166.575 53.324 166.343 53.492C166.111 53.66 165.995 53.88 165.995 54.152C165.995 54.368 166.063 54.548 166.199 54.692C166.343 54.828 166.519 54.94 166.727 55.028C166.943 55.108 167.239 55.2 167.615 55.304C168.087 55.432 168.471 55.56 168.767 55.688C169.063 55.808 169.315 55.992 169.523 56.24C169.739 56.488 169.851 56.812 169.859 57.212C169.859 57.572 169.759 57.896 169.559 58.184C169.359 58.472 169.075 58.7 168.707 58.868C168.347 59.028 167.931 59.108 167.459 59.108Z" fill="#344854"/>
</g>
<defs>
<filter id="filter0_d_115_533" x="0" y="0" width="197" height="94" filterUnits="userSpaceOnUse" color-interpolation-filters="sRGB">
<feFlood flood-opacity="0" result="BackgroundImageFix"/>
<feColorMatrix in="SourceAlpha" type="matrix" values="0 0 0 0 0 0 0 0 0 0 0 0 0 0 0 0 0 0 127 0" result="hardAlpha"/>
<feOffset dy="4"/>
<feGaussianBlur stdDeviation="5"/>
<feComposite in2="hardAlpha" operator="out"/>
<feColorMatrix type="matrix" values="0 0 0 0 0 0 0 0 0 0 0 0 0 0 0 0 0 0 0.05 0"/>
<feBlend mode="normal" in2="BackgroundImageFix" result="effect1_dropShadow_115_533"/>
<feBlend mode="normal" in="SourceGraphic" in2="effect1_dropShadow_115_533" result="shape"/>
</filter>
</defs>
</svg>
