<svg width="490" height="490" viewBox="0 0 490 490" fill="none" xmlns="http://www.w3.org/2000/svg">
<path fill-rule="evenodd" clip-rule="evenodd" d="M275.532 197.605C282.816 194.246 289.446 189.579 295.422 183.607C309.428 169.609 316.409 152.789 316.364 133.147C316.316 113.501 309.335 96.7254 295.422 82.8207L245.273 32.703C245.121 32.5508 244.874 32.5508 244.722 32.703L194.574 82.8207C180.661 96.7254 173.682 113.499 173.637 133.141C173.588 152.787 180.567 169.609 194.574 183.607C200.457 189.486 207.062 194.128 214.391 197.532C221.613 200.889 229.038 203 236.666 203.866C236.864 203.888 237.014 204.055 237.014 204.254V225.631C237.014 225.847 237.189 226.021 237.404 226.021H252.592C252.807 226.021 252.982 225.847 252.982 225.631L252.982 204.254C252.982 204.055 253.132 203.888 253.33 203.866C260.957 203.001 268.358 200.914 275.532 197.605ZM262.726 170.904C263.152 170.798 263.526 170.614 263.846 170.351C263.476 170.54 263.103 170.725 262.726 170.904Z" fill="#D9F38E"/>
<path fill-rule="evenodd" clip-rule="evenodd" d="M214.469 292.399C207.186 295.758 200.556 300.424 194.58 306.397C180.573 320.395 173.592 337.215 173.637 356.857C173.685 376.503 180.666 393.278 194.58 407.183L244.728 457.301C244.88 457.453 245.127 457.453 245.279 457.301L295.427 407.183C309.34 393.278 316.32 376.505 316.364 356.863C316.413 337.217 309.434 320.395 295.427 306.397C289.544 300.517 282.939 295.876 275.611 292.471C268.388 289.114 260.963 287.003 253.335 286.138C253.137 286.116 252.987 285.949 252.987 285.749V264.372C252.987 264.157 252.813 263.982 252.597 263.982L237.41 263.982C237.194 263.982 237.02 264.157 237.02 264.372L237.02 285.749C237.02 285.949 236.87 286.116 236.672 286.138C229.044 287.002 221.643 289.089 214.469 292.399ZM227.263 319.103C226.846 319.208 226.48 319.388 226.164 319.645C226.527 319.459 226.894 319.279 227.263 319.103Z" fill="#D9F38E"/>
<path fill-rule="evenodd" clip-rule="evenodd" d="M197.605 214.469C194.245 207.185 189.579 200.556 183.607 194.579C169.609 180.573 152.789 173.592 133.147 173.637C113.501 173.685 96.7254 180.666 82.8207 194.579L32.703 244.728C32.5508 244.88 32.5508 245.127 32.703 245.279L82.8207 295.427C96.7254 309.34 113.499 316.319 133.141 316.364C152.787 316.413 169.609 309.434 183.607 295.427C189.486 289.544 194.128 282.939 197.532 275.61C200.889 268.388 203 260.963 203.866 253.335C203.888 253.137 204.055 252.987 204.254 252.987H225.631C225.847 252.987 226.021 252.812 226.021 252.597L226.021 237.409C226.021 237.194 225.847 237.019 225.631 237.019L204.254 237.019C204.055 237.019 203.888 236.869 203.866 236.672C203.001 229.044 200.914 221.643 197.605 214.469ZM170.904 227.278C170.799 226.85 170.614 226.475 170.349 226.153C170.54 226.525 170.725 226.9 170.904 227.278Z" fill="#D9F38E"/>
<path fill-rule="evenodd" clip-rule="evenodd" d="M292.398 275.896C295.757 283.179 300.423 289.809 306.396 295.785C320.394 309.792 337.214 316.772 356.856 316.728C376.502 316.679 393.277 309.698 407.182 295.785L457.3 245.637C457.452 245.485 457.452 245.238 457.3 245.086L407.182 194.937C393.277 181.024 376.504 174.045 356.862 174C337.216 173.952 320.394 180.931 306.396 194.937C300.516 200.82 295.875 207.426 292.47 214.754C289.113 221.976 287.002 229.401 286.137 237.03C286.115 237.227 285.948 237.377 285.748 237.377H264.371C264.156 237.377 263.981 237.552 263.981 237.767L263.981 252.955C263.981 253.17 264.156 253.345 264.371 253.345L285.748 253.345C285.948 253.345 286.115 253.495 286.137 253.693C287.001 261.32 289.088 268.721 292.398 275.896ZM319.101 263.097C319.206 263.517 319.388 263.887 319.647 264.204C319.46 263.838 319.278 263.469 319.101 263.097Z" fill="#D9F38E"/>
<circle cx="245" cy="245.001" r="44.0331" fill="#D9F38E"/>
<circle cx="444.206" cy="245" r="45.7944" fill="#344854"/>
<circle cx="45.7944" cy="245" r="45.7944" fill="#344854"/>
<circle cx="245" cy="45.7945" r="45.7944" fill="#344854"/>
<circle cx="245" cy="444.206" r="45.7944" fill="#344854"/>
<circle cx="444.205" cy="245" r="18.3178" fill="#D9F38E"/>
<circle cx="45.7943" cy="245" r="18.3178" fill="#D9F38E"/>
<circle cx="245" cy="45.7944" r="18.3178" fill="#D9F38E"/>
<circle cx="245" cy="444.206" r="18.3178" fill="#D9F38E"/>
</svg>
