<svg width="50" height="50" viewBox="0 0 50 50" fill="none" xmlns="http://www.w3.org/2000/svg">
<rect width="50" height="50" rx="16" fill="#D9F38E"/>
<path d="M16 23.4167C16 20.2191 16 18.6203 16.3775 18.0824C16.755 17.5445 18.2583 17.03 21.2649 16.0008L21.8377 15.8047C23.405 15.2682 24.1886 15 25 15C25.8114 15 26.595 15.2682 28.1623 15.8047L28.7351 16.0008C31.7417 17.03 33.245 17.5445 33.6225 18.0824C34 18.6203 34 20.2191 34 23.4167C34 23.8996 34 24.4234 34 24.9914C34 30.6294 29.761 33.3655 27.1014 34.5273C26.38 34.8424 26.0193 35 25 35C23.9807 35 23.62 34.8424 22.8986 34.5273C20.239 33.3655 16 30.6294 16 24.9914C16 24.4234 16 23.8996 16 23.4167Z" stroke="#344854" stroke-width="1.5"/>
<path d="M22.5 25.4L23.9286 27L27.5 23" stroke="#344854" stroke-width="1.5" stroke-linecap="round" stroke-linejoin="round"/>
</svg>
