<svg width="174" height="60" viewBox="0 0 174 60" fill="none" xmlns="http://www.w3.org/2000/svg">
<circle cx="30" cy="30" r="30" fill="#344854"/>
<path d="M35.285 23.5651C34.6586 24.1911 33.9636 24.6802 33.2002 25.0323C32.5482 25.3331 31.8783 25.5375 31.1905 25.6456C30.9898 25.6771 30.8365 25.8465 30.8365 26.0496L30.8365 27.6129C30.8365 27.8326 30.6584 28.0108 30.4387 28.0108H29.5608C29.341 28.0108 29.1629 27.8326 29.1629 27.6129V26.0496C29.1629 25.8465 29.0096 25.6771 28.8089 25.6455C28.1205 25.5367 27.448 25.3298 26.7916 25.0247C26.0235 24.6678 25.3311 24.1813 24.7145 23.5651C23.2464 22.0978 22.5148 20.3346 22.5199 18.2754C22.5246 16.2166 23.2561 14.4585 24.7145 13.001L29.7185 8.00008C29.8738 7.84481 30.1256 7.84481 30.281 8.00008L35.285 13.001C36.7433 14.4585 37.475 16.2168 37.4801 18.276C37.4848 20.3348 36.7531 22.0978 35.285 23.5651ZM32.0844 21.9218L32.4074 16.1702C32.4172 15.9844 32.3413 15.8498 32.1796 15.7665C32.0183 15.6835 31.8593 15.7007 31.7027 15.8181L29.6272 17.5195C29.3893 17.7145 29.0295 17.5773 28.9819 17.2733L28.561 14.5856C28.5512 14.4976 28.5167 14.4291 28.4576 14.3802C28.3993 14.3313 28.3261 14.302 28.238 14.2922C28.1401 14.2922 28.0594 14.3239 27.996 14.3873C27.9322 14.451 27.9003 14.5318 27.9003 14.6296L27.592 20.3665C27.5822 20.5524 27.658 20.6868 27.8193 20.7697C27.9809 20.853 28.1401 20.836 28.2967 20.7186L30.3691 19.0198C30.6077 18.8242 30.9685 18.9628 31.0148 19.2679L31.4238 21.9658C31.4434 22.044 31.4802 22.1102 31.5342 22.1642C31.5878 22.2178 31.6636 22.2446 31.7615 22.2446C31.8593 22.2446 31.9376 22.2152 31.9964 22.1565C32.0551 22.0978 32.0844 22.0196 32.0844 21.9218Z" fill="#D9F38E"/>
<circle cx="30.5" cy="18.5" r="4.5" fill="#D9F38E"/>
<path d="M24.715 36.4352C25.3414 35.8092 26.0364 35.3201 26.7998 34.9679C27.4518 34.6672 28.1217 34.4628 28.8095 34.3547C29.0102 34.3231 29.1635 34.1538 29.1635 33.9506L29.1635 32.3874C29.1635 32.1676 29.3416 31.9895 29.5613 31.9895L30.4392 31.9895C30.659 31.9895 30.8371 32.1676 30.8371 32.3874L30.8371 33.9506C30.8371 34.1538 30.9904 34.3231 31.1911 34.3548C31.8795 34.4635 32.552 34.6704 33.2084 34.9756C33.9765 35.3324 34.6689 35.8189 35.2855 36.4352C36.7536 37.9024 37.4852 39.6656 37.4801 41.7248C37.4754 43.7836 36.7439 45.5418 35.2855 46.9992L30.2815 52.0002C30.1262 52.1554 29.8744 52.1554 29.719 52.0002L24.715 46.9992C23.2567 45.5418 22.525 43.7835 22.5199 41.7242C22.5152 39.6654 23.2469 37.9024 24.715 36.4352ZM27.9156 38.0785L27.5926 43.83C27.5828 44.0159 27.6587 44.1505 27.8204 44.2338C27.9817 44.3167 28.1407 44.2995 28.2973 44.1821L30.3728 42.4808C30.6107 42.2858 30.9705 42.423 31.0181 42.7269L31.439 45.4146C31.4488 45.5027 31.4833 45.5711 31.5424 45.62C31.6007 45.6689 31.6739 45.6983 31.762 45.7081C31.8599 45.7081 31.9406 45.6764 32.004 45.613C32.0678 45.5492 32.0997 45.4684 32.0997 45.3706L32.408 39.6337C32.4178 39.4479 32.342 39.3135 32.1807 39.2305C32.0191 39.1472 31.8599 39.1642 31.7033 39.2816L29.6309 40.9804C29.3923 41.176 29.0315 41.0374 28.9852 40.7324L28.5762 38.0345C28.5566 37.9562 28.5198 37.8901 28.4658 37.8361C28.4122 37.7825 28.3364 37.7557 28.2385 37.7557C28.1407 37.7557 28.0624 37.785 28.0036 37.8437C27.9449 37.9024 27.9156 37.9807 27.9156 38.0785Z" fill="#D9F38E"/>
<circle cx="29.5" cy="41.5" r="4.5" transform="rotate(180 29.5 41.5)" fill="#D9F38E"/>
<path d="M23.5649 24.7149C24.191 25.3413 24.68 26.0362 25.0322 26.7997C25.3329 27.4517 25.5374 28.1216 25.6455 28.8094C25.677 29.0101 25.8464 29.1633 26.0495 29.1633L27.6128 29.1633C27.8325 29.1633 28.0106 29.3415 28.0106 29.5612L28.0106 30.4391C28.0106 30.6589 27.8325 30.837 27.6128 30.837L26.0495 30.837C25.8464 30.837 25.677 30.9903 25.6453 31.1909C25.5366 31.8794 25.3297 32.5518 25.0245 33.2083C24.6677 33.9764 24.1812 34.6688 23.5649 35.2854C22.0977 36.7535 20.3345 37.485 18.2753 37.48C16.2165 37.4753 14.4583 36.7437 13.0009 35.2854L7.99996 30.2814C7.84469 30.1261 7.84469 29.8743 7.99996 29.7189L13.0009 24.7149C14.4583 23.2566 16.2167 22.5249 18.2759 22.5198C20.3347 22.5151 22.0977 23.2468 23.5649 24.7149ZM21.9216 27.9154L16.1701 27.5924C15.9843 27.5827 15.8497 27.6586 15.7663 27.8203C15.6834 27.9816 15.7006 28.1405 15.818 28.2971L17.5193 30.3727C17.7144 30.6106 17.5771 30.9704 17.2732 31.018L14.5855 31.4389C14.4975 31.4487 14.429 31.4832 14.3801 31.5423C14.3312 31.6006 14.3018 31.6738 14.2921 31.7619C14.2921 31.8598 14.3238 31.9404 14.3871 32.0039C14.4509 32.0677 14.5317 32.0996 14.6295 32.0996L20.3664 32.4079C20.5522 32.4177 20.6866 32.3419 20.7696 32.1806C20.8529 32.0189 20.8359 31.8598 20.7185 31.7032L19.0197 29.6307C18.8241 29.3921 18.9627 29.0314 19.2677 28.9851L21.9657 28.5761C22.0439 28.5565 22.11 28.5197 22.164 28.4657C22.2176 28.412 22.2444 28.3363 22.2444 28.2384C22.2444 28.1405 22.2151 28.0622 22.1564 28.0035C22.0977 27.9448 22.0195 27.9154 21.9216 27.9154Z" fill="#D9F38E"/>
<circle cx="18.5" cy="29.5" r="4.5" transform="rotate(-90 18.5 29.5)" fill="#D9F38E"/>
<path d="M36.4352 35.2851C35.8092 34.6587 35.3201 33.9638 34.9679 33.2003C34.6672 32.5483 34.4628 31.8784 34.3547 31.1906C34.3231 30.9899 34.1538 30.8367 33.9506 30.8367L32.3874 30.8367C32.1676 30.8367 31.9895 30.6585 31.9895 30.4388L31.9895 29.5609C31.9895 29.3411 32.1676 29.163 32.3874 29.163L33.9506 29.163C34.1538 29.163 34.3231 29.0097 34.3548 28.8091C34.4635 28.1206 34.6704 27.4482 34.9756 26.7917C35.3324 26.0236 35.8189 25.3312 36.4352 24.7146C37.9024 23.2465 39.6656 22.515 41.7248 22.52C43.7836 22.5247 45.5418 23.2563 46.9992 24.7146L52.0002 29.7186C52.1554 29.8739 52.1554 30.1257 52.0002 30.2811L46.9992 35.2851C45.5418 36.7434 43.7835 37.4751 41.7242 37.4802C39.6654 37.4849 37.9024 36.7532 36.4352 35.2851ZM38.0785 32.0846L43.83 32.4076C44.0159 32.4173 44.1505 32.3414 44.2338 32.1797C44.3167 32.0184 44.2995 31.8595 44.1821 31.7029L42.4808 29.6273C42.2858 29.3894 42.423 29.0296 42.7269 28.982L45.4146 28.5611C45.5027 28.5513 45.5711 28.5168 45.62 28.4577C45.6689 28.3994 45.6983 28.3262 45.7081 28.2381C45.7081 28.1402 45.6764 28.0596 45.613 27.9961C45.5492 27.9323 45.4684 27.9004 45.3706 27.9004L39.6337 27.5921C39.4479 27.5823 39.3135 27.6581 39.2305 27.8194C39.1472 27.9811 39.1642 28.1402 39.2816 28.2968L40.9804 30.3693C41.176 30.6079 41.0374 30.9686 40.7324 31.0149L38.0345 31.4239C37.9562 31.4435 37.8901 31.4803 37.8361 31.5343C37.7825 31.588 37.7557 31.6637 37.7557 31.7616C37.7557 31.8595 37.785 31.9378 37.8437 31.9965C37.9024 32.0552 37.9807 32.0846 38.0785 32.0846Z" fill="#D9F38E"/>
<circle cx="41.5" cy="30.5" r="4.5" transform="rotate(90 41.5 30.5)" fill="#D9F38E"/>
<circle cx="29.5" cy="29.5" r="4.5" fill="#D9F38E"/>
<path d="M73.7461 42.3521C73.0666 42.3521 72.472 41.8954 72.2968 41.2389L66.5036 19.5348C66.2494 18.5824 66.9672 17.6479 67.9529 17.6479H69.6377C70.3282 17.6479 70.9295 18.1193 71.0943 18.7898L75.8411 38.0994C75.9167 38.4072 75.6837 38.7045 75.3667 38.7045C75.0477 38.7045 74.8142 38.4036 74.8936 38.0945L79.8546 18.7748C80.0249 18.1116 80.6227 17.6479 81.3075 17.6479H83.6275C84.313 17.6479 84.9114 18.1127 85.0809 18.777L90.0112 38.0948C90.0901 38.4039 89.8565 38.7045 89.5375 38.7045C89.2203 38.7045 88.9871 38.407 89.0628 38.0989L93.8095 18.7898C93.9743 18.1193 94.5756 17.6479 95.2661 17.6479H96.9509C97.9366 17.6479 98.6543 18.5824 98.4001 19.5347L92.6069 41.2389C92.4317 41.8954 91.8371 42.3521 91.1577 42.3521H88.3203C87.6401 42.3521 87.045 41.8944 86.8705 41.2369L81.9126 22.5603C81.8187 22.2062 82.0856 21.8592 82.4519 21.8592C82.8182 21.8592 83.0851 22.2062 82.9911 22.5603L78.0332 41.2369C77.8587 41.8944 77.2637 42.3521 76.5834 42.3521H73.7461Z" fill="#344854"/>
<path d="M101.442 42.3521C100.614 42.3521 99.942 41.6805 99.942 40.8521V25.8131C99.942 24.9846 100.614 24.3131 101.442 24.3131H103.175C103.629 24.3131 103.997 24.6813 103.997 25.1355V27.711C103.997 27.8747 103.779 27.9308 103.7 27.7876C103.679 27.7499 103.675 27.705 103.688 27.664C104.106 26.35 104.748 25.432 105.613 24.9099C106.514 24.3794 107.591 24.1141 108.844 24.1141C109.427 24.1141 109.899 24.5865 109.899 25.1691V26.4607C109.899 27.2891 109.227 27.9607 108.399 27.9607H108.349C107.118 27.9607 106.129 28.3475 105.382 29.1213C104.635 29.8729 104.261 30.934 104.261 32.3046V40.8521C104.261 41.6805 103.59 42.3521 102.761 42.3521H101.442Z" fill="#344854"/>
<path d="M118.67 42.75C117.285 42.75 116.076 42.4405 115.043 41.8215C114.032 41.2025 113.252 40.3404 112.702 39.235C112.175 38.1297 111.911 36.8365 111.911 35.3553V25.8131C111.911 24.9846 112.582 24.3131 113.411 24.3131H114.73C115.558 24.3131 116.23 24.9846 116.23 25.8131V34.9906C116.23 35.7422 116.373 36.4054 116.658 36.9802C116.966 37.5328 117.395 37.975 117.944 38.3066C118.516 38.6161 119.153 38.7708 119.857 38.7708C120.56 38.7708 121.186 38.6161 121.736 38.3066C122.285 37.975 122.714 37.5218 123.022 36.947C123.329 36.3722 123.483 35.6869 123.483 34.8911V25.8131C123.483 24.9846 124.155 24.3131 124.983 24.3131H126.302C127.131 24.3131 127.802 24.9846 127.802 25.8131V40.8521C127.802 41.6805 127.131 42.3521 126.302 42.3521H124.462C124.049 42.3521 123.714 42.0171 123.714 41.6038V39.4494C123.714 39.2728 123.948 39.2103 124.036 39.3633C124.062 39.4081 124.066 39.4621 124.047 39.5102C123.627 40.5775 122.944 41.3811 122 41.921C121.054 42.4737 119.944 42.75 118.67 42.75Z" fill="#344854"/>
<path d="M133.317 42.3521C132.489 42.3521 131.817 41.6805 131.817 40.8521V18.75C131.817 17.9216 132.489 17.25 133.317 17.25H134.636C135.465 17.25 136.136 17.9216 136.136 18.75V32.9167C136.136 33.3055 135.761 33.5842 135.389 33.4718C134.975 33.3471 134.838 32.8305 135.136 32.5174L142.484 24.7801C142.767 24.4819 143.161 24.3131 143.572 24.3131H144.902C146.206 24.3131 146.889 25.8613 146.01 26.8242L142.444 30.7329C141.989 31.2306 141.923 31.9701 142.281 32.541L146.993 40.0551C147.62 41.0541 146.902 42.3521 145.722 42.3521H144.318C143.802 42.3521 143.322 42.0867 143.047 41.6494L138.06 33.7032C137.847 33.3631 138.038 32.9146 138.432 32.8335C138.98 32.7203 139.351 33.3776 138.97 33.7884L136.066 36.9229C135.86 37.146 135.503 36.8969 135.641 36.6259C135.766 36.3806 136.136 36.4695 136.136 36.7448V41.0552C136.136 41.7715 135.555 42.3521 134.839 42.3521H133.317Z" fill="#344854"/>
<path d="M162.748 42.75C160.989 42.75 159.363 42.4295 157.868 41.7884C156.395 41.1473 155.099 40.252 153.978 39.1024C152.879 37.9529 152.021 36.6044 151.406 35.0569C150.791 33.5094 150.483 31.8183 150.483 29.9834C150.483 28.1486 150.78 26.4574 151.373 24.9099C151.988 23.3404 152.846 21.9919 153.945 20.8644C155.066 19.7149 156.373 18.8306 157.868 18.2116C159.363 17.5705 160.989 17.25 162.748 17.25C164.506 17.25 166.077 17.5484 167.462 18.1453C168.869 18.7422 170.056 19.538 171.023 20.5328C171.639 21.1523 172.143 21.812 172.536 22.5121C172.914 23.1855 172.567 23.9999 171.868 24.3283L170.552 24.9467C169.758 25.3197 168.828 24.9188 168.328 24.1978C167.905 23.587 167.375 23.0506 166.737 22.5888C165.638 21.7708 164.308 21.3618 162.748 21.3618C161.209 21.3618 159.846 21.7266 158.659 22.4561C157.494 23.1856 156.582 24.1915 155.923 25.4737C155.285 26.7559 154.967 28.2591 154.967 29.9834C154.967 31.7077 155.285 33.222 155.923 34.5263C156.582 35.8085 157.494 36.8144 158.659 37.5439C159.846 38.2734 161.209 38.6382 162.748 38.6382C164.308 38.6382 165.638 38.2402 166.737 37.4444C167.376 36.9686 167.908 36.4218 168.331 35.8038C168.827 35.0804 169.758 34.6803 170.552 35.0533L171.868 35.6717C172.567 36.0001 172.914 36.8141 172.538 37.4888C172.145 38.1953 171.64 38.8658 171.023 39.5003C170.056 40.473 168.869 41.2578 167.462 41.8547C166.077 42.4516 164.506 42.75 162.748 42.75Z" fill="#344854"/>
<circle cx="51" cy="30" r="5" fill="#344854"/>
<circle cx="9" cy="30" r="5" fill="#344854"/>
<circle cx="30" cy="9" r="5" fill="#344854"/>
<circle cx="30" cy="51" r="5" fill="#344854"/>
<circle cx="51" cy="30" r="2" fill="#D9F38E"/>
<circle cx="9" cy="30" r="2" fill="#D9F38E"/>
<circle cx="30" cy="9" r="2" fill="#D9F38E"/>
<circle cx="30" cy="51" r="2" fill="#D9F38E"/>
</svg>
